#!OML:ASF I:\Actors\actors\Patient Classification 1\Patient 1\Session 1\Subject1.ASF
:FULLY-SPECIFIED
:DEGREES
1161
root 0.597131 17.5147 9.89492 12.9088 -10.4578 -10.7856
lowerback -1.08939 1.94527 6.08185
upperback -8.60606 2.97924 2.45002
thorax -8.28878 1.12646 -0.978522
lowerneck -12.8188 -3.60039 -3.608
upperneck 29.4641 -6.80214 7.76576
head 12.2332 -2.5187 2.57489
rclavicle 1.31198e-014 -2.42517e-014
rhumerus -15.2251 39.7267 -98.8451
rradius 95.5974
rwrist 24.6665
rhand 2.52467 -63.4641
rfingers 7.12502
rthumb 28.0063 91.3944
lclavicle 1.31198e-014 -2.42517e-014
lhumerus -27.3001 -35.014 84.3831
lradius 99.3895
lwrist -29.1156
lhand -16.0738 -35.2036
lfingers 7.12502
lthumb 10.1289 -5.46743
rfemur -7.8158 21.9742 25.5053
rtibia 6.07393
rfoot -12.6718 -16.167
rtoes -5.53365
lfemur 12.1238 -51.1404 -17.5574
ltibia -4.5864
lfoot -59.655 58.6085
ltoes 32.2465
1162
root 0.596183 17.5104 9.89368 13.0535 -10.4764 -10.7791
lowerback -1.22179 1.95969 5.94698
upperback -8.66124 2.98527 2.45074
thorax -8.2764 1.13895 -0.899359
lowerneck -12.8393 -3.63203 -3.6755
upperneck 29.4925 -6.86712 7.87134
head 12.2612 -2.54127 2.61776
rclavicle -2.68359e-015 -5.56597e-015
rhumerus -15.7546 40.9522 -98.222
rradius 96.5579
rwrist 23.8403
rhand 2.93956 -64.1105
rfingers 7.12502
rthumb 28.4028 91.9753
lclavicle -2.68359e-015 -5.56597e-015
lhumerus -27.2833 -35.0454 84.3959
lradius 99.3867
lwrist -29.0694
lhand -16.0281 -34.9223
lfingers 7.12502
lthumb 10.1731 -5.18828
rfemur -8.02331 21.8106 25.427
rtibia 6.10804
rfoot -12.6509 -16.0288
rtoes -5.59692
lfemur 11.8474 -51.1103 -17.3545
ltibia -4.57599
lfoot -59.6837 58.5791
ltoes 32.334
1163
root 0.596454 17.4948 9.89822 13.3431 -10.2908 -10.6017
lowerback -1.65675 1.92492 5.73667
upperback -8.7557 2.89543 2.39139
thorax -8.1346 1.1102 -0.826669
lowerneck -12.8838 -3.65739 -3.79904
upperneck 29.5847 -6.93139 8.03276
head 12.3248 -2.56088 2.69322
rclavicle 1.80894e-014 1.15295e-014
rhumerus -17.2654 41.4543 -98.3018
rradius 97.9903
rwrist 23.2563
rhand 3.26598 -64.2538
rfingers 7.12502
rthumb 28.7147 92.0663
lclavicle 1.80894e-014 1.15295e-014
lhumerus -27.2358 -35.0848 84.4414
lradius 99.3237
lwrist -29.0115
lhand -16.0907 -34.8032
lfingers 7.12502
lthumb 10.1126 -5.06617
rfemur -8.41041 21.2821 25.1196
rtibia 6.11045
rfoot -12.5832 -15.7724
rtoes -6.06806
lfemur 11.0367 -50.875 -16.9386
ltibia -4.47184
lfoot -58.7673 58.5169
ltoes 32.0803
1164
root 0.579386 17.5035 9.90242 12.6332 -9.65072 -9.98276
lowerback -1.17419 1.62775 4.88682
upperback -8.61164 2.49681 2.31642
thorax -8.29855 0.969986 -0.429909
lowerneck -12.8993 -3.67003 -3.84158
upperneck 29.5925 -6.96331 8.10938
head 12.3389 -2.56976 2.72534
rclavicle 1.34677e-014 5.56597e-015
rhumerus -19.3852 41.6032 -98.766
rradius 99.7226
rwrist 22.4394
rhand 3.17927 -64.1873
rfingers 7.12502
rthumb 28.6318 92.0137
lclavicle 1.34677e-014 5.56597e-015
lhumerus -27.1609 -35.0943 84.4834
lradius 99.2431
lwrist -28.9808
lhand -16.1428 -34.9476
lfingers 7.12502
lthumb 10.0624 -5.2082
rfemur -7.40802 21.6374 24.866
rtibia 5.7409
rfoot -12.7433 -16.9527
rtoes -5.63985
lfemur 11.3277 -50.2972 -17.5818
ltibia -4.49089
lfoot -55.8202 58.4146
ltoes 30.7125
1165
root 0.575908 17.5045 9.91121 12.3902 -8.94103 -9.84952
lowerback -1.081 1.3857 4.72534
upperback -8.56185 2.17352 2.35014
thorax -8.31673 0.824005 -0.28893
lowerneck -12.8909 -3.67829 -3.86073
upperneck 29.5064 -6.95973 8.10359
head 12.3024 -2.57266 2.72508
rclavicle 4.72114e-015 3.22031e-014
rhumerus -22.0461 41.4778 -99.5339
rradius 101.604
rwrist 21.6645
rhand 2.63119 -63.8404
rfingers 7.12502
rthumb 28.1081 91.7541
lclavicle 4.72114e-015 3.22031e-014
lhumerus -27.1165 -35.0191 84.5944
lradius 99.206
lwrist -28.9919
lhand -16.0409 -35.087
lfingers 7.12502
lthumb 10.1607 -5.35238
rfemur -6.95506 21.5064 24.9601
rtibia 5.56429
rfoot -12.8403 -17.6125
rtoes -5.71121
lfemur 11.1779 -50.052 -17.424
ltibia -4.50864
lfoot -53.5563 58.4071
ltoes 29.4176
1166
root 0.578914 17.5039 9.9359 12.4856 -8.19958 -10.3209
lowerback -1.49313 1.20816 5.29725
upperback -8.51377 1.93294 2.53851
thorax -8.02854 0.679002 -0.385135
lowerneck -12.8892 -3.67359 -3.87816
upperneck 29.3833 -6.92079 8.05739
head 12.2477 -2.56491 2.71338
rclavicle 1.68967e-014 -5.08889e-014
rhumerus -25.411 40.7421 -100.738
rradius 103.668
rwrist 21.6708
rhand 2.46836 -63.0179
rfingers 7.12502
rthumb 27.9524 90.957
lclavicle 1.68967e-014 -5.08889e-014
lhumerus -27.076 -34.8797 84.7428
lradius 99.2006
lwrist -29.0127
lhand -16.0488 -34.7352
lfingers 7.12502
lthumb 10.1531 -5.0002
rfemur -6.71365 21.1424 25.6534
rtibia 5.37461
rfoot -12.9306 -17.8929
rtoes -5.93543
lfemur 11.094 -50.2264 -16.6941
ltibia -4.6503
lfoot -52.3073 58.5507
ltoes 28.5446
1167
root 0.579312 17.5037 9.95046 12.4754 -7.66933 -10.5732
lowerback -1.71413 1.06846 5.59802
upperback -8.44211 1.73938 2.64439
thorax -7.82896 0.572127 -0.426732
lowerneck -12.936 -3.65202 -3.83974
upperneck 29.2825 -6.87627 8.02105
head 12.2103 -2.54547 2.69649
rclavicle 4.96962e-015 4.37326e-015
rhumerus -26.8452 42.0637 -100.874
rradius 104.896
rwrist 20.892
rhand 2.76204 -63.5708
rfingers 7.12502
rthumb 28.2331 91.4639
lclavicle 4.96962e-015 4.37326e-015
lhumerus -27.0294 -34.759 84.8006
lradius 99.2272
lwrist -29.0453
lhand -15.9993 -34.6142
lfingers 7.12502
lthumb 10.2009 -4.88151
rfemur -6.54689 21.0192 26.0575
rtibia 5.32391
rfoot -13.1164 -18.2097
rtoes -5.63457
lfemur 11.0071 -50.2084 -16.2139
ltibia -4.74627
lfoot -51.2197 58.5095
ltoes 27.942
1168
root 0.57926 17.5024 9.95604 12.3508 -7.27103 -10.5506
lowerback -1.72805 0.925414 5.62368
upperback -8.37764 1.54528 2.66726
thorax -7.75972 0.47782 -0.407776
lowerneck -12.9808 -3.6131 -3.78566
upperneck 29.1927 -6.80543 7.96413
head 12.1736 -2.51503 2.67323
rclavicle -1.5207e-014 1.98785e-014
rhumerus -28.4775 42.7545 -101.422
rradius 105.93
rwrist 20.5037
rhand 3.06977 -63.4056
rfingers 7.12502
rthumb 28.5272 91.2497
lclavicle -1.5207e-014 1.98785e-014
lhumerus -27.0526 -34.6757 84.8326
lradius 99.2861
lwrist -29.0802
lhand -15.7927 -34.9843
lfingers 7.12502
lthumb 10.4001 -5.26152
rfemur -6.43559 20.8527 26.1275
rtibia 5.4247
rfoot -13.2359 -18.4451
rtoes -5.61403
lfemur 10.8929 -50.0098 -16.0487
ltibia -4.75258
lfoot -50.1469 58.3107
ltoes 27.4506
1169
root 0.580436 17.5021 9.95839 12.2459 -6.92849 -10.5495
lowerback -1.73889 0.790469 5.68755
upperback -8.31818 1.36442 2.70657
thorax -7.69748 0.387799 -0.393516
lowerneck -12.9684 -3.55966 -3.69778
upperneck 29.0482 -6.68814 7.81135
head 12.0941 -2.47449 2.61394
rclavicle -4.22417e-015 7.55382e-015
rhumerus -29.8358 43.0972 -102.005
rradius 106.774
rwrist 19.8624
rhand 3.16274 -63.3845
rfingers 7.12502
rthumb 28.6161 91.2137
lclavicle -4.22417e-015 7.55382e-015
lhumerus -27.1411 -34.5717 84.9001
lradius 99.3771
lwrist -29.1311
lhand -15.6551 -35.2022
lfingers 7.12502
lthumb 10.5329 -5.48608
rfemur -6.38456 20.6092 26.2007
rtibia 5.57299
rfoot -13.2479 -18.5691
rtoes -5.97302
lfemur 10.7389 -49.7992 -15.8494
ltibia -4.7445
lfoot -48.9243 58.2373
ltoes 26.791
1170
root 0.581849 17.5036 9.95465 12.1672 -6.70213 -10.5614
lowerback -1.72535 0.69234 5.75038
upperback -8.26034 1.23511 2.74908
thorax -7.64902 0.323127 -0.378123
lowerneck -12.9079 -3.50353 -3.59402
upperneck 28.9195 -6.5691 7.64286
head 12.0102 -2.43429 2.54737
rclavicle 9.88954e-015 -8.74653e-015
rhumerus -30.4044 43.4435 -102.312
rradius 107.316
rwrist 18.9645
rhand 3.36845 -63.738
rfingers 7.12502
rthumb 28.8126 91.5338
lclavicle 9.88954e-015 -8.74653e-015
lhumerus -27.2618 -34.4517 84.9929
lradius 99.477
lwrist -29.151
lhand -15.5977 -35.3323
lfingers 7.12502
lthumb 10.5883 -5.61906
rfemur -6.38194 20.4523 26.2575
rtibia 5.69354
rfoot -13.2233 -18.6598
rtoes -6.16979
lfemur 10.4952 -49.4793 -15.5706
ltibia -4.73831
lfoot -47.6533 58.1508
ltoes 26.161
1171
root 0.584446 17.5053 9.95015 12.1142 -6.73167 -10.5747
lowerback -1.71243 0.678697 5.79639
upperback -8.22577 1.2187 2.77675
thorax -7.61998 0.314041 -0.374157
lowerneck -12.8036 -3.44769 -3.5852
upperneck 28.8713 -6.47825 7.61448
head 11.961 -2.39962 2.54866
rclavicle 6.26172e-015 -2.18663e-014
rhumerus -30.215 43.8039 -102.369
rradius 107.451
rwrist 18.2984
rhand 3.42948 -63.9455
rfingers 7.12502
rthumb 28.8709 91.7314
lclavicle 6.26172e-015 -2.18663e-014
lhumerus -27.4271 -34.3956 85.1141
lradius 99.5467
lwrist -29.1201
lhand -15.6977 -35.4861
lfingers 7.12502
lthumb 10.4918 -5.76797
rfemur -6.42832 20.4096 26.2641
rtibia 5.82949
rfoot -13.2408 -18.5824
rtoes -5.99827
lfemur 10.4364 -49.2441 -15.4914
ltibia -4.73363
lfoot -47.3247 57.999
ltoes 26.1472
1172
root 0.589054 17.5063 9.94681 12.0977 -7.00376 -10.5692
lowerback -1.72739 0.754597 5.83875
upperback -8.22054 1.31893 2.76512
thorax -7.60002 0.360663 -0.414432
lowerneck -12.6671 -3.40191 -3.62883
upperneck 28.8758 -6.42351 7.68035
head 11.9345 -2.37531 2.59096
rclavicle -1.63997e-015 2.38542e-015
rhumerus -29.5755 43.7387 -102.346
rradius 107.208
rwrist 18.3415
rhand 3.51945 -63.7524
rfingers 7.12502
rthumb 28.9568 91.5236
lclavicle -1.63997e-015 2.38542e-015
lhumerus -27.6138 -34.4328 85.2531
lradius 99.5934
lwrist -29.1246
lhand -15.6491 -35.4738
lfingers 7.12502
lthumb 10.5386 -5.75799
rfemur -6.53915 20.4374 26.1977
rtibia 6.0069
rfoot -13.2572 -18.3193
rtoes -5.80359
lfemur 10.6013 -49.2029 -15.6921
ltibia -4.71789
lfoot -47.7562 58.0058
ltoes 26.3566
